<svg xmlns="http://www.w3.org/2000/svg" xmlns:xlink="http://www.w3.org/1999/xlink"><symbol id="icon-arrow" viewBox="0 0 18 11" preserveAspectRatio="none"><path d="M1 1l8 8 8-8" stroke="#1F1E25" stroke-width="2"/></symbol><symbol id="icon-blue-cards"><path d="M32.702 4.397L11.88.035a1.642 1.642 0 00-1.94 1.25l-.396 2.517L33.57 8.835l.396-2.517a1.626 1.626 0 00-1.263-1.92zm-8.757 4.971a1.66 1.66 0 00-2.034-1.139l-3.953 1.087-9.32-1.953-1.024 4.794-6.404 1.759a1.639 1.639 0 00-1.15 2.013l3.609 12.873a1.66 1.66 0 002.034 1.139l20.7-5.687a1.639 1.639 0 001.15-2.013l-.619-2.21 2.322.486a1.641 1.641 0 001.94-1.25l1.47-6.87-8.363-1.752-.358-1.277zm2.39 6.543l.513-2.395a.676.676 0 01.798-.514l2.42.507a.669.669 0 01.52.79l-.513 2.395a.676.676 0 01-.798.514l-2.42-.507a.67.67 0 01-.52-.79zM1.572 15.2l20.7-5.686a.312.312 0 01.376.21l.705 2.517L2.064 18.09l-.706-2.517a.306.306 0 01.213-.372zm24.685 7.396a.295.295 0 01-.03.229.296.296 0 01-.183.143l-20.7 5.687a.312.312 0 01-.376-.21l-2.105-7.51 21.289-5.847 2.105 7.508z" fill="#565EF5"/><path d="M8.688 23.11a.677.677 0 00-.83-.464l-2.417.665a.668.668 0 00-.469.82l.671 2.393c.1.354.472.563.83.464l2.417-.664a.668.668 0 00.47-.82l-.672-2.393z" fill="#565EF5"/></symbol><symbol id="icon-blue-phone"><path d="M17.675 0H2.325C1.047 0 0 1.033 0 2.296v29.407C0 32.966 1.047 34 2.325 34h15.35C18.953 34 20 32.968 20 31.703V2.296C20 1.033 18.953 0 17.675 0zM7.545 1.655h4.91a.28.28 0 01.282.28.28.28 0 01-.282.277h-4.91a.28.28 0 01-.282-.278.28.28 0 01.282-.279zM10 32.852a1.155 1.155 0 01-1.163-1.15c0-.635.52-1.148 1.163-1.148.642 0 1.163.513 1.163 1.149 0 .635-.52 1.149-1.163 1.149zm8.382-3.102H1.618V3.642h16.764V29.75z" fill="#565EF5"/></symbol><symbol id="icon-blue-security"><path d="M27.923 5.312C22.155 5.312 17.736 3.655 14 0 10.262 3.655 5.843 5.312.076 5.312.077 14.83-1.881 28.463 13.999 34c15.882-5.537 13.924-19.17 13.924-28.688zM12.846 22.06l-4.639-4.666 2.077-2.089 2.562 2.577 4.87-4.897 2.076 2.089-6.946 6.986z" fill="#565EF5"/></symbol><symbol id="icon-blue-vault"><path d="M4.207 26.063h25.585V4.366H4.207v21.697zm8.661-14.267a3.445 3.445 0 013.338 2.576h7.521v1.684h-7.521a3.445 3.445 0 01-3.338 2.577c-1.899 0-3.443-1.534-3.443-3.419s1.544-3.418 3.443-3.418z" fill="#2C36F2"/><path d="M0 0v30.429h2.48V33h2.968v-2.571h23.104V33h2.968v-2.571H34V0H0zm2.512 27.747V2.682h28.976v25.065H2.512z" fill="#2C36F2"/></symbol><symbol id="icon-entrance" viewBox="0 0 20 22" preserveAspectRatio="none"><path d="M2.222 14.3h2.222v5.5h13.334V2.2H4.444v5.5H2.222V1.1c0-.292.117-.572.326-.778.208-.206.49-.322.785-.322H18.89c.295 0 .577.116.786.322.208.206.325.486.325.778v19.8c0 .292-.117.572-.325.778a1.117 1.117 0 01-.786.322H3.333c-.294 0-.577-.116-.785-.322a1.095 1.095 0 01-.326-.778v-6.6zM8.89 9.9V6.6l5.555 4.4-5.555 4.4v-3.3H0V9.9h8.889z"/></symbol><symbol id="icon-facebook" viewBox="0 0 9 16" preserveAspectRatio="none"><path d="M6 9.2h2.143L9 6H6V4.4c0-.824 0-1.6 1.714-1.6H9V.112A25.85 25.85 0 006.551 0c-2.327 0-3.98 1.326-3.98 3.76V6H0v3.2h2.571V16H6V9.2z"/></symbol><symbol id="icon-instagram" viewBox="0 0 16 16" preserveAspectRatio="none"><path d="M8 0c2.174 0 2.445.008 3.298.048.852.04 1.432.174 1.942.372a3.9 3.9 0 011.418.922c.406.4.721.884.922 1.418.198.51.332 1.09.372 1.942C15.99 5.555 16 5.826 16 8s-.008 2.445-.048 3.298c-.04.852-.174 1.432-.372 1.942a3.907 3.907 0 01-.922 1.418 3.94 3.94 0 01-1.418.922c-.51.198-1.09.332-1.942.372C10.445 15.99 10.174 16 8 16s-2.445-.008-3.298-.048c-.852-.04-1.432-.174-1.942-.372a3.911 3.911 0 01-1.418-.922A3.923 3.923 0 01.42 13.24c-.198-.51-.332-1.09-.372-1.942C.01 10.445 0 10.174 0 8s.008-2.445.048-3.298C.088 3.85.222 3.27.42 2.76c.2-.534.515-1.018.922-1.418.4-.407.884-.721 1.418-.922C3.27.222 3.85.088 4.702.048 5.555.01 5.826 0 8 0zm0 4a4 4 0 100 8 4 4 0 000-8zm5.2-.2a1 1 0 10-2 0 1 1 0 002 0zM8 5.6a2.4 2.4 0 110 4.8 2.4 2.4 0 010-4.8z"/></symbol><symbol id="icon-minus" viewBox="0 0 16 2" preserveAspectRatio="none"><path stroke="#1F1E25" stroke-width="2" d="M0 1h16"/></symbol><symbol id="icon-plus" viewBox="0 0 16 16" preserveAspectRatio="none"><path d="M0 8h16M8 0v16" stroke="#1F1E25" stroke-width="2"/></symbol><symbol id="icon-twitter" viewBox="0 0 16 13" preserveAspectRatio="none"><path d="M16 1.543c-.6.265-1.236.44-1.886.516A3.292 3.292 0 0015.558.244a6.564 6.564 0 01-2.085.796A3.283 3.283 0 007.88 4.032 9.325 9.325 0 011.114.604a3.28 3.28 0 001.016 4.38 3.273 3.273 0 01-1.487-.41v.04a3.281 3.281 0 002.633 3.218c-.484.13-.99.15-1.483.056a3.283 3.283 0 003.066 2.279A6.59 6.59 0 010 11.525 9.29 9.29 0 005.031 13c6.039 0 9.341-4.999 9.341-9.334 0-.141-.004-.284-.01-.424A6.667 6.667 0 0016 1.544z"/></symbol><symbol id="icon-yandex-arrow" viewBox="0 0 612 612">
<g>
	<g id="Location">
		<g>
			<path d="M573.75,0c-6.521,0-12.661,1.625-18.035,4.514l-535.5,286.875C8.186,297.833,0,310.514,0,325.125
				c0,21.133,17.136,38.25,38.25,38.25h210.375V573.75c0,21.114,17.136,38.25,38.25,38.25c14.592,0,27.291-8.186,33.736-20.234
				l286.875-535.5C610.374,50.911,612,44.771,612,38.25C612,17.117,594.864,0,573.75,0z M306,497.556V344.25
				c0-21.133-17.117-38.25-38.25-38.25H114.444L527.027,84.972L306,497.556z"/>
		</g>
	</g>
</g>
<g>
</g>
<g>
</g>
<g>
</g>
<g>
</g>
<g>
</g>
<g>
</g>
<g>
</g>
<g>
</g>
<g>
</g>
<g>
</g>
<g>
</g>
<g>
</g>
<g>
</g>
<g>
</g>
<g>
</g>
</symbol><symbol id="icon-youtube" viewBox="0 0 16 13" preserveAspectRatio="none"><path d="M15.634 2.03C16 3.478 16 6.5 16 6.5s0 3.023-.366 4.47c-.203.8-.797 1.43-1.55 1.643C12.717 13 8 13 8 13s-4.714 0-6.084-.387c-.756-.216-1.35-.845-1.55-1.643C0 9.523 0 6.5 0 6.5s0-3.022.366-4.47c.203-.8.797-1.43 1.55-1.643C3.286 0 8 0 8 0s4.717 0 6.084.387c.756.216 1.35.845 1.55 1.643zM6.4 9.344L11.2 6.5 6.4 3.656v5.688z"/></symbol></svg>